<svg xmlns="http://www.w3.org/2000/svg" data-name="<Layer>" viewBox="0 0 2742 1828" id="business-partners-are-signing-business-deal"><g data-name="Ñëîé 3"><path fill="#af6954" fill-rule="evenodd" d="M506.65,501.57S414.51,465.92,348.05,513c-4.93,3.69-11.23,3.36-19.94,3.69-12.69.91-24.51.29-42.08,19.12-29.32,31.64-44.2,59.3-51,83.43a134.12,134.12,0,0,0-5.14,37.65l18.41,25.45s-.74,14.18,6.18,32.71C262.08,736,277.55,757.33,284.1,768c11.62,19.57,16.8,41.17,29.82,49l14.56,8.67,61-3.12L602.74,687.52a257.81,257.81,0,0,1,17.16-26c5.93-7.59,19.94-18.7,25.13-27.12,7.79-13,4.89-17.91,2.89-25.13-3.31-12-25.58-24.25-33-34.12s-5-25.54-39.6-43.16C532.27,510,506.65,501.57,506.65,501.57Z"></path><path fill="#ffe4ce" fill-rule="evenodd" d="M555.46,610c-17.83,8.54-32.91,40.14-51.65,51-26.87,15.18-50.51,13.94-53.78,16.14-4.1,2.94-17.75,7-25,25.54-5.47,13.93-10.78,39.73-13.06,38-11.57-5.35-21-35.87-21-35.87S365,701.1,355.21,707.7c-12.28,8-12.73,31.72-8.83,47.72a47.24,47.24,0,0,0,12.23,22.76,211.79,211.79,0,0,1-17,23.6C331.46,813.89,314.71,817,314.71,817a488.93,488.93,0,0,1-2.29,49.74c-2.6,24.9-8.13,49.86-8.13,49.86a215.17,215.17,0,0,1,34.58,4.29c15.24,3,135.3,55,135.3,55s2.46-21.08,4-34c1.34-11,4.14-25.46,4.65-26.46,10.49-19.2,71.44,6.63,87.19-7.55,16.63-15.72,18.66-28.36,22.81-47.1C598,838.16,604.2,810,604.37,806.89c7.5-22.51,19.32-21.89,20.27-40,0-14.22-26.58-20.36-26.71-33-.66-32.42,8.62-58.79,5.85-81C601.41,637.68,598.33,590.91,555.46,610Z"></path><path fill="#f68f80" fill-rule="evenodd" d="M2506.58,1303.75c0-19.15-3.17-61.42-6.54-97.62-5.19-55.81-15.21-110.31-48.77-145.47-27.11-28.42-65.71-45.27-104.47-53.7-29.82-6.49-59.81-14.75-83.37-22.42-11.79-3.84-21.84-3.06-29.71-10.76-4.13-4-4.94-6.11-8.71-11.08-6.79-8.94-16.33-21.12-23.61-27.27a26.9,26.9,0,0,0-18.55-6.64c-36.86,0-93.32,4.56-160,30.16-3.25,1.25-8.57,9.61-13.17,19.86-3,6.57-5.41,16.52-7.51,17.26-45,15.82-94.08,13-127.08,39.93-13.37,10.89-25.55,35.6-30.57,53.32-5.38,19-10.1,52.67-13.34,89-4,44.51-6.17,93.79-10.51,134.56-4,37-15.19,60.31-16.29,73.92-.38,4.68,1.36,15.62,1.36,15.62l-28.24,12.11-45.89,20.85-89.6,38.92-83.33,32.07-49.65,13.88-2.37,16.57,31.42,86.41,20.78,8.57,94.42-26.48,102.43-31.75,94.64-39.62,45.77-30.16,14.19-31.57,4.69,35.25-2.67,52.93-7.53,92.67-15.19,95.3-17.81,75.63,504.53,1.17-20.63-95.84-18.27-107.5-7.56-56.9,4.46-48.46,16.83-64,16.5-43,26.22,123,28,189.49,19.29,102.67,121.43.59s-4.3-41.76-10.15-87.86c-6-47.3-13.66-99.52-20-143.16-6-41.48-15.24-76.62-19.8-119.66C2504.42,1396.67,2506.58,1317.6,2506.58,1303.75Z"></path><path fill="#ffe4ce" fill-rule="evenodd" d="M1887.63,643l65.13-18s145.07,64.71,169.1,77.93c12.39,6.56,15.77,50.23,13.49,65.79-1.75,14-8.22,21.77-8.22,21.77s11.16,18.92,23.35,29.31a274.09,274.09,0,0,0,23.39,17.82s-4.36,40.47,2,69.17,23.35,45.63,23.35,45.63L2197,967.12l-11.52,13.73-25.32,18.42-42.95,21.33-38.65,26.47-25.88,21.72s-8.34-15.3-9.73-20.3c-2.35-8.46-22.3-33.66-25.09-48.21-1.36-7.13,4.68-16,5-30.92.23-11.53-5.26-30.33-5.85-31.28-11.68-17.31-64.33,12.12-80.57,0-17.21-13.46-21.64-28-27.36-46.24-6.91-21.07-15.44-48-16.62-50.86-9.25-21.48-21.07-19-22.85-36.24-1.22-13.53,23.46-21.72,23.09-34.62-2.26-30.88-14-58.86-13.23-79.53C1878.82,676.25,1880.31,650.14,1887.63,643Z"></path><path fill="#a45d52" fill-rule="evenodd" d="M1878.13,599.05c11-7.71,31.68-17.6,46-23.52,20.1-8.29,44.85-26.4,66.88-31.92,33.63-9.52,69.08-17,91.16-11.89s50.11,9.38,71.36,19.2c3.21,1.49,5.31-3,11.31-4.54,10.3-2.65,26.59-3.7,39.88-1.94,30.23,4,60.72,23.32,60.72,23.32a198.38,198.38,0,0,1,42.3,33.77c14.69,15.67,26.88,36.67,33.63,57.7.59,2.35,3.08,20.95,3.72,31.2,1.3,21,1.31,41.29,6.66,56.83,1.66,4.82,14.56,46,33.51,52,14.91,4.73,25.2-21.46,25.09-13.13a36.37,36.37,0,0,1-5.53,18.4A42.54,42.54,0,0,1,2387.68,819c-7.37,3.17-17.29,4.17-24.47,2.59-6.49-1.42-10.54-5.34-12.15-4.58-.7.33,5.22,8.65,16.1,16.41,16.1,11.46,35.25,28.69,38.72,49.43,1.47,8.71,1.68,22.12-.07,30.25-3.47,16.13-12.32,26.54-18.12,43.5-4.29,12.57-8.63,31.14-6.45,41.16,4.4,20.2,16.53,28.35,14.23,27.18-3.71-1.89-33.23-13.48-67.51-22.87-39.94-10.93-85.62-20.26-93.6-29.47-3.46-4-9.77-10.18-12.29-14.58-1.1-1.91,5.06-2.18,9.55-9.87,3.45-5.93,5.64-19.68,5.52-28.35-.37-25.94-12.35-47-18.61-68.18-4.22-14.36-2.66-35.37-5.26-32.9-5.3,5-14.85,12.47-20.7,15.27-7.27,3.48-15.53,6.27-23.74,3.89-24.37-7.08-48.57-36.23-47.21-41.39,8.49-10.71,15.83-27.15,15.4-40.87-.39-12.67-8-22.79-14.68-28.75-12.41-11.88-34.18,5.79-57.82,10.79-16.28,3.16-37.42-5.92-37.42-5.92l18.69,33.81,21.5,22S2019.61,774,1997.09,740c-19.51-29.11-39.31-75.7-68.25-91.24-27.34-15-43.6,19.36-47,32.8-.94,4-1.08,33.58,7.2,58.41,2.41,16.4-55.48-45.36-43.18-86C1852.19,629.39,1860.28,612.34,1878.13,599.05Z"></path><path fill="#ffe4ce" fill-rule="evenodd" d="M1565,1615.14s-4.78-27.55-15.54-48.74-27.49-36-27.49-36-14.47,8.58-22.24,9c-19,1.15-62.4-12.49-84.67-15-14.37-1.59-42.1,3.32-42.1,3.32l-5.56-5.74-42.3-6.21-52.85,18.1-47.3,15.64a191.84,191.84,0,0,0-10.3,44.44c-2.37,23.85.92,49.43.92,49.43s9.12,2.41,18.79,6,19.9,8.33,19.9,8.33-1.48,6.89-1.78,9.63c-1.06,9.61,4.15,7.47,10,12.14,6.16,4.92,10.09-3.7,11.51-.77,1.24,2.56-.78,7.44.88,9.81,1.9,2.69,11.79,7.85,14,10.11s11.84-8.2,14.06-6.14c3.48,3.24,1.37,13.39,5.3,15.84,3,1.86,10.62,2,13.75,3.39,4.34,1.87,6.56-9.29,11.16-8,3.1.86,2.59,5.71,5.1,9.33,1.92,2.77,6.81,4.62,9.34,4.62,3.63,0,8.09-3.23,13.19-6.91,2.42-1.74,5.09-6.29,7.71-5.59,6.72,1.79,15.35,3.52,22.13,2.89,2.88-.26,8.52-1.83,10.37-4.88,1.62-2.66-.6-6.86,2.26-7,8.86-.4,21.6,7,30.61,4.08,2.41-.8,8-6,7.48-12.33-.37-5-6.95-11.31-4.88-12,7-2.18,26.41,11,33.33,7.72,2.27-1.06,7.23-5.57,8.17-10.74.79-4.34-2.48-9.46-.58-10.44,9-4.62,28.29-32,36.36-35.85,10.18-4.82,19.64-3.51,27.82-5.16A173.45,173.45,0,0,0,1565,1615.14Z"></path><path fill="#769cbb" fill-rule="evenodd" d="M825.63,1388.91s-47.09-40.16-97-103.25c-46.39-58.62-97-132.67-145.94-187.23-29.12-32.44-61-58.75-81.93-68.73-6.7-3.21,6.31-26.06-4.23-35A208.3,208.3,0,0,0,472.88,977c-15.05-9.4-33.48-17.94-55.79-29.88-31.57-16.89-63.36-30-86.55-37.52-12.45-4-32.66-3.91-34.76-1.13-4.09,5.44-3.94,27.51-8.71,35.36-8.79,14.48-12.52,15.36-22.17,33.61-14.86,28.1-34.8,76.77-39.22,119.12-6.18,59.32-9.9,97.51-4.61,153.92,5.19,55.23,5.13,115.4,9.16,142.51,11.76,79.22,11.59,170.44,22.22,240.57,6.73,44.35,6.54,190.88,6.54,190.88l449.17.27.33-243s21.09,8,49.37,5c40.33-4.12,72.63-22,72.63-22s47.39,17.9,100.38,37.33c76.52,28,159.44,50.52,169.1,53.34,14.76,4.33,25.92,7.86,30.23,6.26,2.46-.92,4.39-10.79,17.1-7.8,20.17,4.75,70.48,11,73.3,9.14,3-2-7.54-25.11-8.11-41.12-1.79-51.09,18.57-75.21,16.57-83.12-1.13-4.48-59,.07-58.89-5.27s-9.56-17.13-25.1-24.22c-22.51-10.29-52-9.23-59.66-12.41-34-14.12-98.12-39.8-98.12-39.8l40.75-31.52,31.84-26,9.8-15,45.72-46.28,8.13-14.77-4.7-15-50.73-59.52-16.48-10.4-11.6,5.92-34.82,29.79-21.05,21-24.08,5.75Z"></path><path fill="#fff" fill-rule="evenodd" d="M1195.88,1207.81l26.49-476.39,329.44,18.33-26.49,476.71Z"></path><path fill="#ffc371" fill-rule="evenodd" d="M1443.9,1122.26a30,30,0,1,1,28.3,31.88A30.15,30.15,0,0,1,1443.9,1122.26Z"></path><path fill="#d66255" fill-rule="evenodd" d="M1454.39 1147.57l-19.6 53.44 11.2-1.6 7.81 10.33 13.14-54.23zM1475.1 1155.87l5.2 54 8.13-9.69 12.82 7.6L1488 1152z"></path><path fill="#ffe4ce" fill-rule="evenodd" d="M1095.63,1318.47s9.68-9,17-10.48,19.22-7.5,28.64-10.64,29-16.18,38.21-22.11,18.76-17.42,27-25.27,19.44-22.43,28.88-29.19,13-10.16,22.21-14.73,11.38-5,19.75-9.15,11.39-3.63,14.41-8.81,2.18-6.8-3-11.4-12.07-6.36-16.25-6.78-11,1.71-18.17,4.2-16.67,8.77-24.1,11.39-15.71,8.62-20.69,10.67a68.37,68.37,0,0,1-10.57,3.21l1-114.73s-7.64,1.88-12.53,5.77S1168,1109.7,1161,1116.78s-19.2,25.23-25,33.39-20.76,32.24-27.7,41.85-15.39,24-21.37,32.73-12.09,19.33-18.39,24.81-16.79,15.56-16.79,15.56,16,21.92,21.65,28.29S1095.63,1318.47,1095.63,1318.47Z"></path><path fill="#571519" d="M1413.05 1487.7a4.84 4.84 0 01-1.12-.14 4.57 4.57 0 01-3.32-5.55l1.11-4.41a18.35 18.35 0 01-10.29 4.27c-4.43.25-8.69-1.6-12.53-5.44-5.93-5.93-8.55-13.45-10.25-20.82-2.41 6.9-6.35 13.52-13.5 17.09-11.37 5.68-21.29-1.39-26.46-6.09a22.3 22.3 0 01-1 9.56 4.57 4.57 0 11-8.67-2.89c1.39-4.19.46-7.54-.72-11.78a38 38 0 01-1.81-10.46c0-4 2.75-5.12 3.6-5.36 3.94-1.14 6 2.08 9.06 7a43.59 43.59 0 003.54 5.11c7.38 7.37 13 9.47 18.41 6.78 8.27-4.13 10.46-16.19 12.06-25a94.74 94.74 0 00.69-12.16 4.57 4.57 0 014.3-4.57 4.62 4.62 0 014.81 4c0 .1 1.2 10.09 2.22 14.86.36 1.7.7 3.43 1 5.17 1.71 8.87 3.33 17.25 9.19 23.11 2 2 3.81 2.91 5.59 2.79 4.32-.23 9-6 11.52-9.13 2.2-2.74 4.71-5.87 8.41-4 4 2 3.1 5.89.91 15.41l-2.31 9.25A4.58 4.58 0 011413.05 1487.7zM1413.77 1803.63c-4.45 0-5.29-4.19-5.29-11.92v-.13c-2.13-11.27-8.5-27-17.26-34.38-3.72-3.15-7.32-4.36-11-3.75-4.19.69-8.33 5.87-11.66 10-.84 1-1.65 2-2.42 3a18.27 18.27 0 00-1.13 2c-1.34 2.59-2.86 5.52-6.1 6a5.54 5.54 0 01-4.82-1.65c-1.82-1.82-1.76-2.86-1-15.56.29-4.78.73-12 .52-13.52a4.66 4.66 0 013.69-5.25 4.45 4.45 0 015.25 3.38c.43 1.93.26 6.06-.27 14.85 4.16-5.15 9.3-11.07 16.45-12.26 6.35-1 12.71 1 18.43 5.8a50.58 50.58 0 0110.76 13.58c.45-7.67 1.84-15.54 5.89-21.91 3.36-5.28 7.65-8.38 12.74-9.23 6.13-1 12.13 1.48 17.2 4.63-1.71-3.49-3.53-7.11-5-10a4.57 4.57 0 018.18-4.08c12.48 25 13.5 27 9.63 30.12-3.33 2.7-6.55.14-10.28-2.84-4.58-3.67-12.23-9.79-18.26-8.82-2.46.41-4.59 2.09-6.53 5.13-4.81 7.57-4.73 19-4.65 29.07l0 3.61c0 1.91.18 3.8.36 5.69s.34 3.62.39 5.51a47 47 0 01.78 7.9c0 .14 0 .63 0 .77A4.71 4.71 0 011413.77 1803.63zm35.51-53.91h0zM1932.58 803a21.16 21.16 0 01-12.25-3.94c-18.72-13.06-21.67-52.9-21.95-57.4a4.56 4.56 0 014.28-4.84 4.46 4.46 0 014.84 4.28c1.17 19 7.32 43 18.06 50.47a12.3 12.3 0 0011.2 1.64c7.24-2.18 14.78-18.47 15.17-45.42a4.57 4.57 0 019.14.13c-.42 29-8.93 50.22-21.69 54A23.61 23.61 0 011932.58 803zM2037.25 749.07a4.57 4.57 0 01-.53-9.11l13.2-1.55a4.57 4.57 0 111.07 9.07l-13.2 1.56z"></path><path fill="#571519" d="M1959.4 758.24a4.57 4.57 0 01-.53-9.11l43.61-5.14a4.57 4.57 0 011.07 9.08l-43.61 5.14zM1906 763a4.56 4.56 0 01-3.8-2c-.94-1.4-4.45-3.4-8-4-2.35-.42-3.48 0-3.66.1a4.65 4.65 0 01-4.53 4.7 4.43 4.43 0 01-4.54-4.43 9.12 9.12 0 016.72-9.14c6.68-2 17.78 2 21.62 7.74a4.56 4.56 0 01-3.8 7.1zM1453.79 1213.06a4.6 4.6 0 01-3.69-1.86l-6.34-8.63-7.23 2a4.57 4.57 0 01-5.52-6l19.08-52.59a4.57 4.57 0 018.6 3.11l-16.07 44.27 1.74-.48a4.55 4.55 0 014.9 1.7l2.43 3.31 10.81-43.67a4.57 4.57 0 118.87 2.2l-13.15 53.13a4.54 4.54 0 01-3.55 3.38A3.76 3.76 0 011453.79 1213.06z"></path></g><g data-name="Ñëîé 2"><path fill="#571519" d="M2095.64,813a4.57,4.57,0,0,1-.54-9.1c12.16-1.48,22-7.1,28.51-16.26,7.51-10.59,9.79-24.9,6.42-40.29-2.15-9.8-6.11-16.25-11.77-19.17-6.27-3.23-15-2.48-26.06,2.22a4.57,4.57,0,1,1-3.59-8.4c13.64-5.83,25-6.48,33.83-1.94,8.2,4.22,13.76,12.75,16.52,25.33,3.93,17.94,1.13,34.83-7.89,47.54-7.91,11.15-20.3,18.27-34.87,20A5.25,5.25,0,0,1,2095.64,813Z"></path><path fill="#571519" d="M2098,776.86a4.4,4.4,0,0,1-.8-.07,4.56,4.56,0,0,1-3.7-5.29c2.43-13.68,10.82-18,11.77-18.41a4.57,4.57,0,0,1,3.94,8.24c-.32.18-5.14,2.89-6.71,11.76A4.58,4.58,0,0,1,2098,776.86Z"></path><path fill="#571519" fill-rule="evenodd" d="M1919.23,763.55c-1.1-7.45,1.64-14.71,6.86-15.48s10.57,4.54,11.66,12-1.64,14.72-6.86,15.48S1920.32,771,1919.23,763.55Z"></path><path fill="#571519" d="M1905.92 719.06a4.57 4.57 0 01-2.62-8.32c11.49-8 26.73-9 40.72-2.7a4.57 4.57 0 11-3.77 8.33c-11-5-22.9-4.3-31.72 1.86A4.51 4.51 0 011905.92 719.06zM2020.49 999.73a4.34 4.34 0 01-1-.11 4.56 4.56 0 01-3.45-5.46c6.1-27.09-1.27-51-4.48-55.92-8.19-1.29-16.71.29-28.29 2.43-8.44 1.57-18 3.35-29.94 4.48-23.22 1.67-33-11.1-42.94-35.25-7.3-19.12-11.67-33.3-16.78-51.36a4.57 4.57 0 118.79-2.49c5 17.82 9.35 31.79 16.49 50.48 9.91 24 17.49 30.65 33.67 29.52 11.43-1.09 20.79-2.83 29-4.36 12.64-2.35 22.63-4.2 32.87-2.22a7.43 7.43 0 014.59 3.58c5.22 8 12.31 34.65 5.89 63.12A4.56 4.56 0 012020.49 999.73zm-7.77-61.29h0z"></path><path fill="#571519" d="M1898.09,862.61a4.57,4.57,0,0,1-4.45-3.55c-1.12-4.88-5-18.91-9.31-25.11a45.73,45.73,0,0,0-7.16-8.29c-5-4.89-10.56-10.45-11.73-18.41-2.15-9.91,4.6-15.76,10.55-20.92a58.88,58.88,0,0,0,7.37-7.2c4.3-4.5,6.46-8.36,2.28-26.24a4.57,4.57,0,0,1,8.9-2.08c4.24,18.16,3.19,26.52-4.33,34.37a66.24,66.24,0,0,1-8.23,8.05c-6.25,5.42-8.52,7.89-7.55,12.39.78,5.24,4.86,9.28,9.17,13.55,3,3,6.18,6.12,8.4,9.81,6,8.66,10.37,27.25,10.55,28a4.58,4.58,0,0,1-4.46,5.59Z"></path><path fill="#571519" d="M1890 755.67a4.56 4.56 0 01-4.41-3.37c-4.79-17.63-10.22-37.62-10.09-58.4-.35-9.76 1.61-20.37 5.82-31.36a4.57 4.57 0 018.54 3.27c-3.78 9.84-5.54 19.25-5.23 28-.12 19.72 5.14 39.07 9.78 56.13a4.57 4.57 0 01-4.41 5.77zM1927.91 866.65h-.37a4.57 4.57 0 01.09-9.14h.17c1.58 0 22.1-.26 38.44-12.77a4.57 4.57 0 115.55 7.26C1953.36 866.11 1931.16 866.65 1927.91 866.65zM1944.88 761.3a4.56 4.56 0 01-3.18-1.28c-7.31-7.08-18.67-6.5-24-3.37a4.57 4.57 0 11-4.6-7.9c9.26-5.38 24.88-5.1 35 4.7a4.57 4.57 0 01.1 6.46A4.51 4.51 0 011944.88 761.3zM2086.54 790.53c-22 0-59-6.56-87.93-44.81-11.61-15.14-21.09-31.78-29.45-46.47-18.28-32.1-32.74-57.45-58.75-53.15a4.57 4.57 0 01-1.49-9c32.33-5.32 48.94 23.85 68.18 57.65 8.62 15.14 17.53 30.79 28.78 45.45 40.12 53 95 40.26 97.31 39.69a4.57 4.57 0 012.2 8.87A87.55 87.55 0 012086.54 790.53z"></path><path fill="#571519" d="M2088.42,789.69a4.11,4.11,0,0,1-.78-.07c-44.16-7.57-59-41-70.45-74.67-1.07-3.16-2.18-6.62-3.36-10.29-6.14-19.26-13.79-43.22-29.61-62.52a4.57,4.57,0,0,1,7.07-5.79c16.92,20.65,25.21,46.59,31.25,65.53,1.16,3.61,2.24,7,3.3,10.12,11,32.32,24.1,61.88,63.35,68.61a4.57,4.57,0,0,1-.77,9.08Z"></path><path fill="#571519" d="M2056.21,742.88c-14.79,0-27.94-7.64-34.77-17.43a4.57,4.57,0,1,1,7.49-5.23c7.39,10.58,24.31,17.89,41.15,10.59a4.57,4.57,0,0,1,3.64,8.39A44,44,0,0,1,2056.21,742.88Z"></path><path fill="#571519" d="M2173.57 843.19a4.57 4.57 0 01-.36-9.13c17-1.35 31.12-10.43 41.91-27 27.09-41.64 25.74-116.51 8.77-164.85-11.7-33.32-20.29-40.41-39.12-55.94l-4.13-3.43c-45.64-43.57-138.85-65.55-236.24-11.34a4.57 4.57 0 11-4.44-8c101.42-56.46 199-33.1 246.75 12.51l3.88 3.18c18.94 15.64 29.38 24.25 41.92 60 17.71 50.42 18.9 128.87-9.74 172.87-12.23 18.8-29.12 29.56-48.83 31.12zM1883 746.8c-22.14-22.8-52.4-53.95-39.16-99.72 15.52-54.33 50.58-66.5 82.83-71.24a4.57 4.57 0 011.33 9c-30.85 4.54-61.32 15.52-75.37 64.72-11.78 40.69 15.2 68.47 36.88 90.78zM319.4 822.72a16.4 16.4 0 01-12.73-6.2c-6.1-7.17-9.08-13.36-12.85-21.2a225.32 225.32 0 00-23-38.62c-18.77-24.93-24-51.43-25-69.25a4.57 4.57 0 119.13-.53c.79 13.56 4.86 40 23.22 64.35a233 233 0 0123.84 40.08c3.63 7.53 6.25 13 11.58 19.25 2 2.37 4.16 3.27 6.93 2.9 10.4-1.39 24.82-19.24 32.22-35a4.57 4.57 0 018.27 3.89c-7 15-23.3 38-39.28 40.15A17.37 17.37 0 01319.4 822.72z"></path><path fill="#571519" d="M256.72 692.09a4.62 4.62 0 01-1.74-.35c-.43-.18-43.19-18.63-22.48-77.88 19.55-55.92 59.71-112 113.84-101.54a4.57 4.57 0 11-1.72 9c-48.44-9.32-85.2 43.27-103.49 95.59-12.28 35.14-.21 53 9 61-2.43-17.39-2.86-51.59 25.31-73.44a4.57 4.57 0 115.6 7.22c-33.31 25.84-20.09 74.1-20 74.58a4.58 4.58 0 01-4.4 5.83zM613.06 586a5 5 0 01-1.08-.12 4.58 4.58 0 01-3.37-5.52c6.46-26.8-45.17-50-76-63.93-3.31-1.49-6.42-2.88-9.24-4.19-50.05-22.81-143.06-26.4-160.24.64a4.57 4.57 0 11-7.72-4.9c21.61-34 122.35-26.58 171.77-4 2.82 1.3 5.9 2.68 9.18 4.16 35.6 16 89.39 40.23 81.15 74.41A4.56 4.56 0 01613.06 586zM469.48 675.76c-25.23 0-48.39-11.14-49.78-11.82a4.57 4.57 0 012.65-8.63c2.7.38 66.56 8.62 90.39-51.4a4.57 4.57 0 118.49 3.38c-16.26 41-50 53.19-73.81 56.49 15.3 3.59 35.17 5.12 50.71-4.48 17.8-10.32 26.53-20.1 36-40.31 6.84-14.44 16.45-31.18 30.14-32.62 7.51-.74 14.68 3.25 21.32 12a4.57 4.57 0 11-7.27 5.54c-4.58-6-9-8.82-13.1-8.41-10.34 1.08-19.74 20.91-22.83 27.42-10.29 21.88-20.28 33.05-39.61 44.25C492.47 673.54 480.77 675.76 469.48 675.76zM602.53 696a4.48 4.48 0 01-1.39-.22 4.56 4.56 0 01-3-5.74c6.58-20.55 19.76-33 30.35-42.94 5.26-4.94 10.22-9.61 13.45-14.41 8.8-13.06-1.73-31-16.11-41.24a4.57 4.57 0 015.31-7.45c18.34 13.08 30.54 35.75 18.38 53.8-3.8 5.64-9.12 10.65-14.76 16-10.34 9.73-22.06 20.76-27.91 39.06A4.59 4.59 0 01602.53 696zM419.8 745.68a4.59 4.59 0 01-1.36-.21c-1.24-.39-30.29-9.94-31.73-47.55a4.57 4.57 0 019.14-.35c.77 20.43 11.26 30.86 18.5 35.66-.6-12.32 1.12-35.26 18.62-54.38a4.58 4.58 0 016.75 6.18c-21.54 23.52-15.5 54.85-15.44 55.16a4.57 4.57 0 01-4.48 5.49z"></path><path fill="#571519" d="M440.61 610.27a81.69 81.69 0 01-11.11-.76 4.57 4.57 0 111.24-9c36.19 4.94 63.56-18 85.57-36.34 11.12-9.29 20.72-17.32 29.85-20.48 28.26-9.26 47.65 25 48.46 26.48a4.57 4.57 0 01-8 4.43c-.17-.29-16.53-29.14-37.55-22.25-7.47 2.59-16.48 10.12-26.91 18.84C502.11 587.9 475.33 610.27 440.61 610.27zM410.29 647.24c-26.74 0-46-10.62-54.7-19a4.57 4.57 0 016.34-6.59c10.67 10.28 39.55 24.21 80.11 11.29a4.57 4.57 0 112.78 8.71A113.57 113.57 0 01410.29 647.24zM391.17 794.73H391c-15.75-.43-29.05-6.44-38.47-17.39-10.4-12.08-14.86-29.08-12.55-47.85 1.63-13.32 6.56-22.7 14.63-27.87 8.68-5.55 20.55-6 35.29-1.26a4.57 4.57 0 01-2.79 8.7c-12-3.85-21.29-3.76-27.57.26-5.67 3.63-9.2 10.79-10.49 21.28-2 16.19 1.71 30.67 10.41 40.78 7.69 8.94 18.69 13.85 31.79 14.21a4.57 4.57 0 01-.12 9.14z"></path><path fill="#571519" d="M385.19,758.08a4.58,4.58,0,0,1-4.33-3.1c-3.27-9.6-8.3-12-8.51-12.06a4.61,4.61,0,0,1-2.39-6,4.5,4.5,0,0,1,5.83-2.5c.91.35,9.07,3.9,13.72,17.58a4.57,4.57,0,0,1-2.85,5.8A4.71,4.71,0,0,1,385.19,758.08Z"></path><path fill="#571519" fill-rule="evenodd" d="M569,727.62c.42-7.88-3.15-15.18-7.88-15.43-5.51-.29-10.57,5.77-11,13.65s3.15,15.17,7.88,15.42C563.56,741.55,568.62,735.5,569,727.62Z"></path><path fill="#571519" d="M540.92 680.94a4.57 4.57 0 01-2.41-8.46c13-8 29.07-8.54 41.86-1.29a4.57 4.57 0 01-4.52 7.95c-9.87-5.6-22.34-5.17-32.54 1.12A4.52 4.52 0 01540.92 680.94zM474.18 982.08a4.58 4.58 0 01-3.66-1.82c-3.31-4.4 2.69-47.07 6.4-60 2.29-8 4.73-11.91 8.15-13.23 10.81-3.17 21.38-2.21 34.76-1 8.76.79 18.68 1.68 30.82 1.7h.7c17.89 0 24.48-10.89 31.63-33.59a519.75 519.75 0 0012.17-53.31 4.57 4.57 0 019 1.65 530.07 530.07 0 01-12.41 54.3c-6.74 21.41-15 40.43-41.16 40.09-12.47 0-22.61-.93-31.56-1.74-12.6-1.13-21.79-2-30.39.39-5.2 5.83-10.9 52.37-10.08 60.66a4.57 4.57 0 01-1.62 5A4.62 4.62 0 01474.18 982.08zm3.66-7.3zm0 0h0z"></path><path fill="#571519" d="M600.36,827.84a4.17,4.17,0,0,1-.61,0,4.57,4.57,0,0,1-3.93-5.13c.11-.84,2.79-20.61,8.39-30.47,1.8-3.79,4.8-7.47,7.69-11,4.08-5,7.93-9.74,8.18-14.53.64-5.45-2.52-7.95-9.15-12.69a70.86,70.86,0,0,1-9.62-7.84c-8.36-8.24-10.13-16.43-7.53-35a4.57,4.57,0,1,1,9.05,1.27c-2.37,16.92-.48,21.89,4.95,27.25a62.27,62.27,0,0,0,8.47,6.85c6.66,4.77,14.21,10.17,12.93,20.91-.38,7.47-5.37,13.6-10.19,19.52-2.68,3.29-5.2,6.4-6.68,9.49-4.07,7.18-6.73,22.23-7.43,27.44A4.57,4.57,0,0,1,600.36,827.84Z"></path><path fill="#571519" d="M598.31 716.35a4.43 4.43 0 01-.81-.07 4.57 4.57 0 01-3.69-5.31c3-16.84 6.75-37.79 4.67-58.53-.29-6-1.44-15.21-8.22-28.9a4.57 4.57 0 018.19-4.06c5.74 11.59 8.65 21.85 9.14 32.29 2.19 21.76-1.68 43.41-4.79 60.81A4.57 4.57 0 01598.31 716.35zM541.67 726.8a4.57 4.57 0 01-3.62-7.36c8.7-11.26 25-13.17 35.14-8.49a4.57 4.57 0 01-3.83 8.29c-5.91-2.72-17.87-2.23-24.08 5.78A4.54 4.54 0 01541.67 726.8zM563.51 837.51c-8.62 0-25-1.48-39.87-11.15a4.57 4.57 0 015-7.66c18.16 11.79 39.68 9.47 39.9 9.45a4.57 4.57 0 011.07 9.08A58.06 58.06 0 01563.51 837.51zM2196.7 955a4.55 4.55 0 01-3.42-1.54c-26.39-29.77-25.57-69-24.85-103.64l.08-4.09a4.58 4.58 0 014.57-4.48h.09a4.57 4.57 0 014.48 4.66l-.08 4.1c-.72 34.56-1.46 70.3 22.55 97.39a4.57 4.57 0 01-3.42 7.6zM2562.6 1826.85a4.58 4.58 0 01-4.56-4.29c-2.65-42.17-21.88-165.18-35.92-255-5.75-36.77-10.72-68.52-13.15-85.93-4.15-29.54-4.92-73.81-5.67-116.62-.55-31.65-1.08-61.55-2.91-83.52-.77-9.22-1.45-18.77-2.14-28.54-3.69-52.52-7.87-112-30.94-157.21-8-15.65-15.92-28.38-28.68-39.65-33.12-29.24-81-41.45-127.21-53.25-28.11-7.18-54.67-14-76.31-24.25a4.57 4.57 0 013.93-8.25c20.84 9.91 47 16.58 74.64 23.64 47.31 12.08 96.23 24.56 131 55.26 13.83 12.23 22.31 25.77 30.77 42.34 23.92 46.82 28.17 107.34 31.92 160.73.69 9.73 1.35 19.24 2.12 28.42 1.87 22.27 2.39 52.31 3 84.12.74 42.53 1.51 86.52 5.58 115.51 2.42 17.34 7.39 49.06 13.13 85.79 14.07 90 33.34 213.25 36 255.85a4.58 4.58 0 01-4.28 4.85zM1854.21 1467.44a4.56 4.56 0 01-4.19-2.73c-7.11-16.17-20.89-33.36-33.24-48.2a42 42 0 00-6-4.76c-4.81-3.42-9.37-6.65-10.73-10.55-1.93-5.49.89-19.55 7.79-50.33 3.07-13.66 6.24-27.8 7.28-36 3.24-25.44 4.78-52.69 6.27-79 2.06-36.36 4.2-74 10.76-108.82l1.22-6.57c5.24-28.32 10.2-55.06 30.43-79.43 19.93-24 52.26-29.9 83.52-35.62 18.83-3.45 36.62-6.71 50.61-13.7a4.57 4.57 0 014.09 8.18c-15.16 7.57-33.57 10.94-53 14.51-29.66 5.43-60.33 11-78.14 32.47-18.71 22.54-23.23 47-28.47 75.26l-1.24 6.59c-6.44 34.28-8.56 71.58-10.6 107.65-1.51 26.52-3.06 53.93-6.33 79.68-1.1 8.67-4.18 22.38-7.43 36.89-3.67 16.36-9.21 41.07-8.07 45.35.6 1.26 5 4.4 7.39 6.08 3.09 2.19 6 4.26 7.76 6.36 12.76 15.32 27 33.11 34.59 50.37a4.55 4.55 0 01-2.35 6A4.4 4.4 0 011854.21 1467.44z"></path><path fill="#571519" d="M1554.27,1635.34c-.55,0-1.11,0-1.68-.07-6.63-.55-14.28-4.33-18.18-9a4.57,4.57,0,0,1,7-5.86c2.07,2.47,7.35,5.36,11.92,5.74,1.36.13,3.21,0,4.33-.91,3.82-3.28,2.68-9.55.8-17.43-.28-1.15-.54-2.25-.76-3.29-5.82-27.48-21.58-54-46.83-78.94-2.7-2.67-4.19-4.14-3.35-6.91a4.63,4.63,0,0,1,3.54-3.17c48.13-9,144.94-52.19,215.63-83.72,34.73-15.5,62.16-27.73,75.12-32a4.56,4.56,0,1,1,2.89,8.66c-12.54,4.18-39.79,16.34-74.29,31.73-67.35,30-158.27,70.61-209.47,82.62,24.42,25.14,39.79,52,45.7,79.89.2,1,.45,2,.71,3,1.84,7.7,4.63,19.33-3.74,26.5A14,14,0,0,1,1554.27,1635.34Z"></path><path fill="#571519" d="M1557.25,1637.59a4.57,4.57,0,0,1-3.23-7.8c1.48-1.47,2.46-1.84,31.89-10,65.29-18,218.18-60.33,287.77-105.35,17.53-11.34,22.55-16.75,31.65-43.85a4.57,4.57,0,1,1,8.67,2.91c-9.67,28.79-16.22,36.24-35.36,48.62-70.76,45.78-224.6,88.32-290.29,106.48-14.11,3.9-26.33,7.28-28.62,8.24A4.51,4.51,0,0,1,1557.25,1637.59Z"></path><path fill="#571519" d="M1872.41 1826.26a4.38 4.38 0 01-1.33-.2 4.57 4.57 0 01-3-5.7c26.47-86.91 44.42-254.93 41.67-314.41-1.38-29.61-10.49-61.26-20.14-94.77-12.54-43.61-25.53-88.7-20.11-129.46 2.68-20.24 8.3-38.35 13.74-55.87 5.13-16.53 10-32.14 12.64-49.57 2.58-16.88.92-39.83-.93-56.1a4.56 4.56 0 014-5.06 4.51 4.51 0 015.06 4c1.91 16.84 3.61 40.65.88 58.52-2.77 18.1-7.94 34.77-12.94 50.89-5.33 17.16-10.83 34.9-13.41 54.37-5.16 38.87 7.55 83 19.84 125.73 9.37 32.54 19.05 66.2 20.48 96.88 2.78 60.08-15.33 229.77-42.06 317.49A4.57 4.57 0 011872.41 1826.26zM2439.41 1823.31a4.57 4.57 0 01-4.45-3.56c-3.5-15.38-19.34-117.71-32.08-199.94-7.86-50.76-14.65-94.6-16.76-106.57s-5.82-29.83-10.13-50.57c-17.34-83.5-46.38-223.25-35.22-285.07a4.57 4.57 0 019 1.63c-10.85 60.07 18 198.73 35.17 281.58 4.33 20.81 8.06 38.78 10.18 50.84s8.93 55.95 16.8 106.76c12.71 82.09 28.53 184.25 32 199.32a4.58 4.58 0 01-3.45 5.47A5.05 5.05 0 012439.41 1823.31z"></path><path fill="#571519" d="M2375.17 1825.08a4.57 4.57 0 01-4.45-3.56c-12.95-57.38-36.79-188.84-43.29-232.61-8.4-56.58 12.32-119.9 34.27-179.9a4.57 4.57 0 118.58 3.15c-21.55 58.89-41.9 120.95-33.81 175.41 6.48 43.65 30.26 174.73 43.17 231.94a4.58 4.58 0 01-3.46 5.46A4.28 4.28 0 012375.17 1825.08zM2052.84 1074.37a4.8 4.8 0 01-2.08-.5c-3.48-1.66-4.93-5.73-6.76-10.89-.79-2.22-1.69-4.73-2.78-7.14-2-4.38-5.5-10.51-9.57-17.62-10.76-18.78-24.15-42.17-22.61-56.41.56-5.18 4-9.74 7-13.76.9-1.18 1.76-2.31 2.45-3.36a4.57 4.57 0 117.65 5c-.8 1.22-1.78 2.53-2.81 3.89-2.21 2.92-5 6.56-5.25 9.23-1.22 11.28 11.88 34.17 21.45 50.88 4.18 7.3 7.79 13.6 10 18.38 1.25 2.76 2.22 5.47 3.07 7.86.34 1 .73 2.07 1.12 3.08 1.23-1.27 2.48-2.63 3.1-3.29.79-.86 1.38-1.5 1.63-1.73 9.71-9.3 42.95-34.42 74.55-51.32 2.1-1.12 4.59-2.39 7.33-3.79 18.11-9.23 48.41-24.67 53-42.87 1.43-5.66.17-11.22-3.82-17a4.57 4.57 0 117.5-5.21c5.52 7.94 7.26 16.16 5.18 24.42-5.59 22.23-38.21 38.85-57.7 48.78-2.68 1.37-5.11 2.61-7.17 3.71-30.44 16.27-63.41 41.12-72.56 49.88-.21.21-.64.68-1.21 1.3C2058.54 1071.33 2055.75 1074.37 2052.84 1074.37zm2.29-8.45z"></path><path fill="#571519" d="M2131.15 1115.41a4.46 4.46 0 01-1-.11c-2.4-.53-4.67-1-17.54-25.34l-2.16-4.06c-8.11-15.22-16.5-31-32.54-31a4.57 4.57 0 110-9.14c21.52 0 31.66 19 40.6 35.8l2.19 4.08c5.72 10.82 9 16.17 10.78 18.8 17.47-18.68 95.09-119.26 97.63-130 .18-1.27-2.12-3.43-4-5.17a33.75 33.75 0 01-3.33-3.44c-.88-1.1-1.91-2.43-3.07-3.93-6.86-8.83-22.93-29.52-31.93-29.52a4.57 4.57 0 010-9.14c12.44 0 26.16 16.33 39.14 33.05 1.13 1.46 2.14 2.76 3 3.83a26.29 26.29 0 002.47 2.51c3.2 3 7.57 7.15 6.71 13.19-2 14.33-97 133.4-103.88 138.58A5.5 5.5 0 012131.15 1115.41zM1993 1081.6h-.23a4.54 4.54 0 01-3.15-1.33c-4.79-4.79 4.05-85.73 16-105.71.57-.95 1.22-2.14 1.94-3.44 2.3-4.18 5.17-9.39 8.6-13.11a4.57 4.57 0 016.72 6.2c-2.68 2.9-5.25 7.57-7.31 11.32-.78 1.41-1.49 2.7-2.11 3.74-10 16.62-14.59 65.06-15.85 86.64 11.42-11.19 23.93-22.82 30.59-26.15 2.51-1.25 8.75-1.57 12.23.58a6.4 6.4 0 013.18 5.49 4.57 4.57 0 01-8.6 2.16 9.73 9.73 0 00-3 .08c-7 3.53-26.56 23-33 29.33C1995.23 1081.16 1994.79 1081.6 1993 1081.6zM2046.87 1825.08a4.57 4.57 0 01-4.57-4.51c-2.47-198.39-18.65-301.46-30.45-376.72-7.94-50.63-14.22-90.63-13.64-140.13.3-25.31 10.84-59.92 22-96.56 13.46-44.21 28.71-94.31 28.32-136.36a4.58 4.58 0 014.53-4.61h0a4.57 4.57 0 014.57 4.53c.4 43.45-15.07 94.26-28.71 139.1-11 36-21.3 70-21.59 94-.57 48.73 5.65 88.4 13.53 138.61 11.85 75.53 28.08 179 30.56 378a4.57 4.57 0 01-4.51 4.63zM304.6 908.25a4.58 4.58 0 01-3.33-7.7c3.2-4 9-38.08 8.87-81.44a4.57 4.57 0 014.55-4.59 4.38 4.38 0 014.59 4.55c.14 36.37-4.38 80.3-11.34 87.73A4.57 4.57 0 01304.6 908.25z"></path><path fill="#571519" d="M499.53,1026.08a4.57,4.57,0,0,1-4.41-3.38c-1.07-4-.47-8.22.11-12.35.53-3.71,1.07-7.55,0-9.47-4.48-8-59.86-42-127.22-72.49-26-11.8-58.32-21.69-67.63-15.51-3.68,2.44-4.33,8.46-5,14.83-.73,6.83-1.5,13.9-6,19.08a4.57,4.57,0,0,1-6.88-6c2.64-3,3.21-8.37,3.82-14,.84-7.8,1.79-16.65,9.05-21.46,16-10.66,58.81,6.8,76.45,14.79,63.32,28.67,124.73,64.36,131.43,76.37,2.56,4.59,1.77,10.22,1.07,15.19-.45,3.22-.92,6.54-.33,8.7a4.58,4.58,0,0,1-3.22,5.6A4.5,4.5,0,0,1,499.53,1026.08Z"></path><path fill="#571519" d="M836.43,1406.24a4.54,4.54,0,0,1-3.22-1.33c-71.78-71.36-96.69-101.25-121.79-132.91-15.93-20.1-31.72-41.63-47-62.44-43.23-59-87.94-120-145.78-163.1-27.87-20.79-62.87-32.73-96.71-44.28-24.31-8.29-49.44-16.87-71.91-28.69a4.57,4.57,0,0,1,4.26-8.09c21.83,11.49,46.63,20,70.6,28.13,34.51,11.78,70.2,24,99.22,45.6,58.94,44,104.06,105.51,147.69,165,15.21,20.75,30.94,42.21,46.77,62.17,25.75,32.47,49.5,61,121.07,132.11a4.57,4.57,0,0,1-3.22,7.81Z"></path><path fill="#571519" d="M1170.19 1537.26a4.57 4.57 0 01-4.14-2.64c-9.59-20.51-34.43-24.9-58.46-29.14-11-1.93-21.31-3.75-30.36-7-59.6-21.64-235.71-94.69-251.64-103.19a4.57 4.57 0 014.3-8.06c13.94 7.43 187.1 79.65 250.46 102.66 8.3 3 18.27 4.77 28.83 6.63 25.1 4.44 53.55 9.46 65.15 34.27a4.58 4.58 0 01-4.14 6.51zM1125.81 1666.78c-18 0-367.84-109.58-428.1-162.09-9.26-8.07-24.46-22-43.72-39.72-73.84-67.8-227.5-208.9-264.64-211.74a4.57 4.57 0 01.7-9.11c37.18 2.84 158.93 112 270.13 214.12 19.2 17.63 34.37 31.56 43.54 39.55 56.89 49.59 405.39 159.86 421.74 159.86h0c2.13-.16 4.2-1.66 6.6-3.4 2.58-1.87 5.51-4 9.23-4.69a4.57 4.57 0 011.68 9c-1.7.32-3.57 1.67-5.54 3.1-3.08 2.23-6.58 4.76-11.38 5.12z"></path><path fill="#571519" d="M1144.47,1640.52h-.16a4.56,4.56,0,0,1-4.41-4.72c1.18-34.56,5.27-77.62,26.54-104a4.57,4.57,0,1,1,7.12,5.73C1154,1561.8,1150.17,1603,1149,1636.1A4.57,4.57,0,0,1,1144.47,1640.52Z"></path><path fill="#571519" d="M1215.73 1667c-19.65 0-68.44-9.14-69-9.26a4.58 4.58 0 012-8.94c9.89 2.16 51.6 8.56 65.89 9.32a164.39 164.39 0 01-4.68-62.25 225.83 225.83 0 0112.65-53.52c-7.63-.88-23.63-1.79-33.1-2.33-19-1.08-19-1.08-20.53-2.29a4.57 4.57 0 014.19-7.94c1.8.25 9.78.7 16.85 1.11 41.54 2.36 41.7 2.86 42.92 6.77.54 1.72.15 2.78-1.17 6.28-2.59 6.87-9.44 25.09-12.73 53a155.84 155.84 0 005.32 62c.73 2.49 1.41 4.85-.92 6.81C1222.34 1666.61 1219.6 1667 1215.73 1667zm3.09-8.92zm7.61-115.09h0zM255.07 1819.9h-.23a4.57 4.57 0 01-4.34-4.79c3.39-69.74-8.55-218.39-20.1-362.14-10.44-129.89-20.29-252.57-16.49-294.37 8.73-96 34.11-176.27 67.89-214.7a4.57 4.57 0 016.87 6c-32.55 37-57.1 115.34-65.66 209.49-3.73 41 6.1 163.32 16.5 292.81 11.57 144 23.53 293 20.12 363.32A4.58 4.58 0 01255.07 1819.9zM707.13 1827.25h-.2a4.57 4.57 0 01-4.37-4.77c1-22.81 1-77.37 1-135.14 0-72.56 0-147.59 1.88-176.76a4.63 4.63 0 014.86-4.27 4.57 4.57 0 014.26 4.86c-1.88 28.87-1.88 103.75-1.86 176.17 0 57.87 0 112.54-1 135.55A4.56 4.56 0 01707.13 1827.25zM990.07 1459a4.57 4.57 0 01-3-8.07c3.78-3.18 10.35-8 18.67-14 18-13.07 60.12-43.67 59.38-52.75a4.57 4.57 0 019.11-.74c1 12-20.49 29.92-63.12 60.88-7.85 5.7-14.63 10.63-18.16 13.59A4.54 4.54 0 01990.07 1459z"></path><path fill="#571519" d="M741.63 1592.72c-11.15 0-22-1.5-31.83-5.21A4.57 4.57 0 01713 1579c39.09 14.72 99.34-10.08 116.88-18a4.57 4.57 0 113.77 8.32C815.77 1577.37 777.2 1592.72 741.63 1592.72zM826.71 1391.33a4.57 4.57 0 01-2.3-8.52c12.09-7 39.46-24.75 65.93-41.89 27.35-17.7 55.64-36 68.15-43.24 4.85-2.8 17.15-9 26.41-6a13.44 13.44 0 018.31 7.55 4.57 4.57 0 11-8.34 3.73 4.33 4.33 0 00-2.78-2.58c-4.44-1.43-12.75 1.58-19 5.21-12.31 7.12-40.5 25.36-67.75 43-27.79 18-54 35-66.31 42.11A4.53 4.53 0 01826.71 1391.33z"></path><path fill="#571519" d="M1061.15 1381.13a4.57 4.57 0 01-3-1.15c-4.12-3.66-8.31-7.28-12.51-10.91-20.55-17.74-41.79-36.08-56.69-59.84a4.57 4.57 0 017.74-4.85c14.17 22.58 34.89 40.48 54.92 57.77 4.23 3.66 8.45 7.31 12.61 11a4.58 4.58 0 01-3 8zM1115.55 1337.14c-9.51 0-40.93-27.74-70-72.64-4.66-7.2-5.28-12-2.37-18.47a4.57 4.57 0 018.33 3.76c-1.31 2.9-1.75 4.41 1.71 9.75 30.22 46.67 57.4 67 62.27 68.44 1.63-.23 2-.92 2.14-1.34 1.56-3.39-.84-11.71-3.83-15.9a4.57 4.57 0 117.45-5.3c3.08 4.32 8.55 16.63 4.68 25-1.79 3.89-5.33 6.26-10 6.67zm.13-9.1h0z"></path><path fill="#571519" d="M986.86 1298.61a4.58 4.58 0 01-3.69-7.27c10.15-13.9 49.44-48.34 57.83-52.69a11.1 11.1 0 001.48-1c6.44-4.8 13.09-5.55 24.61 6.42a4.57 4.57 0 11-6.58 6.33c-8.3-8.6-10.18-7.19-12.57-5.42a21.56 21.56 0 01-2.74 1.81c-7.47 3.86-45.56 37.5-54.65 50A4.54 4.54 0 01986.86 1298.61zM1071.27 1387.79a4.57 4.57 0 01-3.54-7.46c8.08-9.89 18.06-19.41 27.72-28.61 8-7.65 15.61-14.87 20.66-21a4.57 4.57 0 117.07 5.78c-5.4 6.62-13.18 14-21.42 21.89-9.46 9-19.23 18.32-27 27.77A4.56 4.56 0 011071.27 1387.79zM1100.76 1319.27a4.57 4.57 0 01-2.88-8.12c6.78-5.51 13.82-7.75 20.63-9.92 2.89-.92 5.88-1.87 8.85-3.08a255.64 255.64 0 0043.57-23.08c12.93-8.38 23.27-19.75 34.23-31.79s22.4-24.62 36.6-33.71c1.25-.8 2.51-1.68 3.77-2.57a61.19 61.19 0 018.62-5.35c2.6-1.23 6-2.45 10-3.87 8.07-2.86 23.08-8.2 23.8-13.14.25-1.72-1.93-4.46-5.84-7.32-8.15-6-19.53-1.6-29.56 2.26-1.49.57-2.94 1.13-4.33 1.63-7.5 2.73-14.41 6.57-21.73 10.64a181.91 181.91 0 01-20.08 10.09c-13.76 5.56-27 7.69-41.06 9.94l-4.71.76a4.57 4.57 0 11-1.48-9l4.75-.76c13.51-2.17 26.28-4.22 39.08-9.39a173.65 173.65 0 0019.06-9.61c7.31-4.06 14.86-8.27 23-11.24 1.34-.48 2.73-1 4.16-1.57 11-4.23 26.08-10 38.25-1.1 7.09 5.2 10.28 10.58 9.49 16-1.53 10.39-16.54 15.72-29.79 20.43-3.59 1.27-7 2.48-9.16 3.5a53.88 53.88 0 00-7.28 4.58c-1.38 1-2.75 1.93-4.1 2.79-13.18 8.44-23.67 20-34.77 32.16-10.87 11.94-22.1 24.28-36 33.31a264.68 264.68 0 01-45.11 23.89c-3.3 1.33-6.45 2.34-9.5 3.3-6.55 2.09-12.21 3.89-17.65 8.31A4.56 4.56 0 011100.76 1319.27z"></path><path fill="#571519" d="M1054.77 1266.71a4.51 4.51 0 01-3.48-1.61 4.57 4.57 0 01.51-6.44c15.4-13.12 27.84-31.45 40.26-50.66 17.17-26.53 34.31-52.22 51-76.35 8.5-12.33 30.54-41.91 51.52-50.39a4.57 4.57 0 113.42 8.48c-18.68 7.55-39.38 35.45-47.41 47.1-16.6 24.06-33.69 49.67-50.8 76.12-12.81 19.81-25.67 38.73-42 52.66A4.58 4.58 0 011054.77 1266.71zM1450.48 1606.41a4.43 4.43 0 01-.88-.08c-13.85-2.69-27.5-10.93-39.53-18.18-11.46-6.92-22.35-13.41-29.47-12.82-8.48.77-14.8 4.28-23.55 9.13a193.85 193.85 0 01-24.72 12c-17.6 6.39-28.11 1.93-32.12-4.37-3.26-5.11-3.46-13.86 5.76-23.08 4.71-4.72 9-9.77 13.12-14.66 8.72-10.31 17-20 27.13-23.43 22-7.59 49.9-11.37 72.75-9.84 5.91.43 14.2 2.4 23.8 4.67 24 5.67 56.81 13.44 75.37 2.94a4.57 4.57 0 014.5 8c-21.69 12.26-56.53 4-82-2-9.22-2.18-17.19-4.06-22.34-4.45-21.69-1.44-48.21 2.16-69.18 9.38-7.77 2.6-14.87 11-23.08 20.69-4.25 5-8.65 10.22-13.64 15.21-4.44 4.44-6.22 9-4.52 11.71 2.17 3.4 10.14 4.75 21.18.74a189.34 189.34 0 0023.53-11.47c9.36-5.19 16.76-9.29 27.17-10.25 10.17-.87 21.68 6.07 35 14.1 11.38 6.87 24.29 14.65 36.56 17a4.57 4.57 0 01-.87 9.05z"></path><path fill="#571519" d="M1226.94 1554.11a4.57 4.57 0 01-1.23-9c4.87-1.36 15.28-5.27 27.34-9.79 24.18-9.06 54.27-20.35 68.84-22.35 15.88-2.21 41.13 3.53 54.76 7.14a4.57 4.57 0 11-2.34 8.83c-13-3.43-36.88-8.87-51.17-6.92-13.56 1.87-44.38 13.43-66.88 21.86-12.76 4.78-22.84 8.56-28.09 10A4.8 4.8 0 011226.94 1554.11zM1465.1 1688.89c-5.21 0-10.88-2.26-16.72-4.58l-3.26-1.28c-13.23-5.45-47.8-24.3-52.39-26.92a4.57 4.57 0 014.54-7.94c5.57 3.18 39.12 21.38 51.25 26.37l3.23 1.28c12.54 5 15.58 5.51 19.29-.26 1.76-2.36 6.52-8.71-9.63-23.77-1.14-1-3.26-2.89-6.06-5.34-16.8-14.67-56.14-49-72.2-71.54a4.57 4.57 0 117.43-5.31c15.45 21.63 54.23 55.51 70.79 70 2.86 2.5 5 4.39 6.23 5.49 14.74 13.76 18.41 25.76 10.94 35.71C1474.66 1686.82 1470.09 1688.89 1465.1 1688.89z"></path><path fill="#571519" d="M1426.54,1705.45a31.4,31.4,0,0,1-6.64-.76c-9-2-18.86-5.6-29.35-9.42-5.63-2-11.53-4.19-17.7-6.24a4.57,4.57,0,0,1,2.89-8.68c6.25,2.08,12.23,4.26,17.93,6.33,10.21,3.72,19.85,7.22,28.21,9.08,5.36,1.2,9.86.4,12.06-2.12,1.91-2.19,2.06-5.86.41-10.33-1.39-3.24-6-7.8-7.62-9.26a4.57,4.57,0,1,1,6.07-6.83c.76.67,7.5,6.77,10,12.71,3.94,10.68.43,16.93-2,19.72C1437.5,1703.45,1432.48,1705.45,1426.54,1705.45Z"></path><path fill="#571519" d="M1386.84,1713c-.84,0-1.7,0-2.57-.11-2.83-.45-6.6-1.3-10.74-2.23-3.42-.77-7.11-1.61-10.49-2.28a4.57,4.57,0,1,1,1.79-9c3.45.68,7.21,1.53,10.71,2.32,3.94.89,7.53,1.7,9.86,2.09,6.21.51,11.12-1.92,12.66-6.56a4.57,4.57,0,0,1,8.67,2.9C1404,1708.25,1396.54,1713,1386.84,1713Z"></path><path fill="#571519" d="M1358 1715.88a4.57 4.57 0 01-2.53-8.37 83.47 83.47 0 018.88-4.55c1.33-.63 2.55-1.21 3.43-1.65a4.57 4.57 0 114.1 8.17c-.93.47-2.22 1.08-3.63 1.74-2.72 1.29-6.46 3.06-7.72 3.9A4.54 4.54 0 011358 1715.88zM1252.24 1661.89a4.45 4.45 0 01-2.16-.55c-10.43-5.61-22-9.95-30.89-11.59a4.57 4.57 0 011.66-9c9.8 1.81 22.35 6.49 33.56 12.54a4.57 4.57 0 01-2.17 8.59zM1476.36 1666.33a4.57 4.57 0 01-1-9c2.19-.5 7-6.2 10.89-10.79 9.16-10.84 20.57-24.34 36.13-25.89 12.86-1.43 37.87-7.11 38.12-7.16a4.57 4.57 0 112 8.91c-1 .24-25.77 5.84-39.19 7.34-11.93 1.19-22 13.12-30.11 22.7-6 7-10.65 12.61-15.8 13.8A4.68 4.68 0 011476.36 1666.33z"></path><path fill="#571519" d="M1265.49,1684.86c-3.53,0-7.54-1.3-12.18-4.57a14.17,14.17,0,0,1-6.33-11.17c-.62-13.13,15.65-27.24,16.34-27.84,11.22-9.81,19.4-11.7,26.49-6.06,12.68,9.58,1.21,26.15-5,35.06l-.81,1.07C1279.58,1677.33,1274,1684.86,1265.49,1684.86Zm15.78-43.6c-2.14,0-5.67,1.42-12,6.93-5.52,4.73-13.49,14.48-13.2,20.49a5.08,5.08,0,0,0,2.47,4.14c7.84,5.53,10.85,2.83,18.14-6.93l.71-1c7.51-10.84,11.6-18.88,6.84-22.44l-.12-.09A4.2,4.2,0,0,0,1281.27,1641.26Z"></path><path fill="#571519" d="M1289.85,1702.71c-4.92,0-9.87-2.16-14.74-6.46a14.9,14.9,0,0,1-5.26-11.47c0-11.21,11.73-23.8,21.55-32.38,9.75-9.07,18.87-11,27-5.54h0c3.93,2.62,6.25,6,6.92,9.93,1.52,9.09-6.23,19.32-15.25,31.17-4.88,8.42-10.9,13.44-17.43,14.53A17.27,17.27,0,0,1,1289.85,1702.71ZM1309,1653c-2.56,0-6.24,1.32-11.48,6.19-11.62,10.17-18.51,19.7-18.53,25.6a5.76,5.76,0,0,0,2.17,4.61c3.62,3.19,7,4.56,10,4.07,3.74-.62,7.7-4.28,11.15-10.31a3.42,3.42,0,0,1,.33-.51c7.16-9.39,14.56-19.11,13.68-24.36-.15-.89-.62-2.26-3-3.83A7.34,7.34,0,0,0,1309,1653Z"></path><path fill="#571519" d="M1318.84,1716a24.19,24.19,0,0,1-9.15-2c-4.29-1.65-7.26-4.23-8.75-7.63-2.37-5.43-.41-11.27,1.8-16.79,2.41-7.28,10.18-18.79,14.83-24.21,8.65-9.33,15.62-14.18,24-10h0c12.94,6.48,8,19.14,2.68,32.55-.63,1.6-1.28,3.26-1.93,5-2.35,6.11-6.72,17.45-16.21,21.56A18.22,18.22,0,0,1,1318.84,1716Zm16.86-52.9c-1.81,0-4.89,1.49-11.31,8.41-3.93,4.58-11.07,15.26-13.07,21.26-1.12,2.82-3,7.61-2,10,.47,1.07,1.73,2,3.74,2.78,3.74,1.53,6.79,1.7,9.43.57,6-2.58,9.56-11.94,11.29-16.44.66-1.73,1.32-3.42,2-5,5.66-14.39,6.51-18.63,1.73-21A3.68,3.68,0,0,0,1335.7,1663.12Z"></path><path fill="#571519" d="M1347.23 1721.2a23.69 23.69 0 01-6.8-1.07c-12.77-3.47-10.27-14.75-9.06-20.16 1.93-6.79 5.65-15.47 8.43-21.61 2-4.3 4.72-7 8.22-8.18 3.79-1.21 8-.43 13 2.4l.15.09c9.61 6 8.2 15.9 5.74 26.37-1.49 5.94-3.94 15.76-11.55 20.09A16.22 16.22 0 011347.23 1721.2zm4.39-42.43a2.5 2.5 0 00-.79.11c-1.19.38-2.13 2-2.71 3.26a161.6 161.6 0 00-7.9 20.07c-1.66 7.52-.6 8.22 2.73 9.13s5.93 1 7.89-.16c4.21-2.39 6.07-9.84 7.18-14.29 2.93-12.43 1.36-14.55-1.61-16.42A10.36 10.36 0 001351.62 1678.77zM1508.92 1540a4.52 4.52 0 01-3.9-2.2c-1.87-3.14-3.88-12.14-.87-17.46a8.11 8.11 0 017.22-4.22 4.57 4.57 0 01.57 9.1c-.54 1.74.06 6.4.93 7.88a4.6 4.6 0 01-1.62 6.26A4.53 4.53 0 011508.92 1540zm2.45-19.31v4.57h0zM2173.71 844.48a4.68 4.68 0 01-1.59-.28c-22.4-8.34-38.11-20.41-49.41-38a4.57 4.57 0 117.68-4.94c10.19 15.84 24.46 26.76 44.92 34.37a4.57 4.57 0 01-1.6 8.85zM2389.47 803.83a20.66 20.66 0 01-2.7-.19c-23.95-3.35-38.42-49.4-38.56-49.86-5.15-16.66-5.88-33.3-6.58-49.4-.67-15.21-1.3-29.59-5.36-44-11-38.83-45.59-77-88.22-97.36-34.67-16.53-69.66-18.8-98.51-6.4a4.57 4.57 0 01-3.61-8.4c31.29-13.46 69-11.13 106.06 6.55 44.89 21.39 81.43 61.87 93.08 103.12 4.35 15.39 5 31 5.69 46 .68 15.52 1.38 31.57 6.18 47.1 5.09 16.51 18.5 41.75 31.09 43.51 5.28.73 10.73-3 16.07-11.24a4.57 4.57 0 117.65 5C2405.06 798.63 2397.58 803.83 2389.47 803.83z"></path><path fill="#571519" d="M2371.88,826.74a47.3,47.3,0,0,1-25.76-7.63,4.57,4.57,0,0,1,5-7.66c12.56,8.17,28.89,8.24,40.65.17,10.06-6.91,14.3-18.1,11.63-30.7a4.57,4.57,0,0,1,8.95-1.9c3.42,16.16-2.34,31.17-15.41,40.14A44.2,44.2,0,0,1,2371.88,826.74Z"></path><path fill="#571519" d="M2401.35 1026.48a12.74 12.74 0 01-1.93-.15c-9.9-1.53-19.32-14.58-21.15-21.19-5.88-21.14-1.79-43.66 12.49-68.83 17.6-31 13.92-63-9.84-85.58a164.92 164.92 0 00-14.62-11.91c-7.77-5.86-15.81-11.91-22.31-20.08a4.57 4.57 0 117.15-5.69c5.78 7.26 13 12.71 20.66 18.47a173.59 173.59 0 0115.42 12.58c27 25.66 31.3 61.82 11.49 96.72-13 22.95-16.83 43.19-11.63 61.88 1.12 4.07 8.5 13.79 13.72 14.59.7.11 1.86.29 3.35-2a4.57 4.57 0 117.66 5C2409.18 1024.33 2405.52 1026.48 2401.35 1026.48zM2223.15 961.16a4.57 4.57 0 01-1.8-8.77c10.2-4.38 10.45-24.75 10.55-32.42.19-16-5.1-30.65-10.7-46.16-6.82-18.86-13.86-38.36-9.86-60.06a4.57 4.57 0 119 1.65c-3.54 19.27 2.78 36.77 9.47 55.3 5.64 15.6 11.46 31.72 11.25 49.38-.13 10.17-.42 34-16.09 40.71A4.57 4.57 0 012223.15 961.16zM1525.32 1230.7h-.26l-276.13-15.36a4.56 4.56 0 01-4.31-4.81 4.61 4.61 0 014.82-4.31l271.56 15.1 26-467.26-320.3-17.81-25.18 464.27a4.57 4.57 0 01-9.13-.49l25.43-468.84a4.55 4.55 0 011.51-3.16 4.46 4.46 0 013.3-1.16l329.44 18.32a4.57 4.57 0 014.3 4.82l-26.49 476.38A4.57 4.57 0 011525.32 1230.7z"></path><path fill="#571519" d="M1473.91,1158.76c-.66,0-1.31,0-2-.06a34.19,34.19,0,0,1-23.87-11.55,34.6,34.6,0,1,1,48.88,2.72A34.27,34.27,0,0,1,1473.91,1158.76Zm0-60.53a25.64,25.64,0,0,0-25.44,24.29h0a25.64,25.64,0,0,0,6.45,18.56,25.31,25.31,0,0,0,35.93,2,25.74,25.74,0,0,0-15.53-44.81C1474.84,1098.25,1474.37,1098.23,1473.9,1098.23Zm-30,24h0Z"></path><path fill="#571519" d="M1480.23 1214.87a4.48 4.48 0 01-1.57-.28 4.57 4.57 0 01-3-3.87l-5-54.09a4.57 4.57 0 019.1-.84l4.12 44.54 2.9-2.84a4.56 4.56 0 015.61-.61l1.83 1.13-10.69-44.92a4.57 4.57 0 118.89-2.12l13.26 55.73a4.58 4.58 0 01-6.86 4.94l-8.21-5.11-7.2 7A4.57 4.57 0 011480.23 1214.87zM1389.88 937.67h-.26l-104.3-5.8a4.57 4.57 0 11.51-9.12l104.3 5.8a4.57 4.57 0 01-.25 9.13zM1472.06 869.48h-.26l-182.45-10.14a4.57 4.57 0 11.51-9.13l182.45 10.14a4.57 4.57 0 01-.25 9.13zM1464.37 1007.68h-.26l-182.44-10.14a4.57 4.57 0 11.51-9.12l182.44 10.14a4.57 4.57 0 01-.25 9.13zM1430.3 973.57H1430l-146.59-8.16a4.57 4.57 0 01.51-9.12l146.59 8.16a4.57 4.57 0 01-.25 9.13zM1362.06 1042.53h-.26l-82.38-4.58a4.57 4.57 0 01-4.31-4.82 4.49 4.49 0 014.82-4.3l82.38 4.58a4.57 4.57 0 01-.25 9.13zM1246.16 1162.23a10.73 10.73 0 01-4.64-1 8.27 8.27 0 01-4.57-6 13.18 13.18 0 01-.23-2.39 4.57 4.57 0 01-2.51-8.54l4.5-2.52 1.18-.66a73.49 73.49 0 0110.77-16.17c5.17-6 15.4-15.89 25.85-15.28a5.76 5.76 0 015.48 4c2.23 7.48-15.55 21.34-15.73 21.47-3.36 2.51-6.91 4.84-10 6.91-3 2-6.07 3.77-9.15 5.5a14 14 0 00-1.19 5.53c4.11.61 17.8-6.66 23.08-9.46 5.6-3 8.62-4.52 10.79-5 3.56-.78 6.19-.1 7.82 2 2.18 2.83 1 6.2-.25 8.79l.68.38c2.67 1.51 6.31 3.57 7.9 2.87a47.66 47.66 0 007.25-4.35c1.32-.9 2.64-1.79 4-2.63a4.57 4.57 0 114.8 7.77c-1.24.78-2.45 1.6-3.66 2.42a55.5 55.5 0 01-8.64 5.13c-5.8 2.6-11.79-.79-16.16-3.26a38.35 38.35 0 00-3.53-1.86 5.27 5.27 0 01-2.68-2.85 5.39 5.39 0 01-.07-3.41c-1.3.66-2.7 1.41-4 2.08C1261.83 1157.75 1252.76 1162.23 1246.16 1162.23zm20.33-39.63a49 49 0 00-7 6.19l1.3-1C1261.87 1127 1264.16 1124.91 1266.49 1122.6zM1171.35 1209.78a4.56 4.56 0 01-3.76-7.15 216.26 216.26 0 0013.32-23.13 226.92 226.92 0 0113.95-24.19 4.57 4.57 0 017.55 5.16 218.48 218.48 0 00-13.4 23.26 224.3 224.3 0 01-13.89 24.07A4.55 4.55 0 011171.35 1209.78zM1252.35 864.2h-.26a4.56 4.56 0 01-4.31-4.81 29.07 29.07 0 012.27-8.56 30.44 30.44 0 001.6-5l.25-1.38c.12-.68.28-1.57.45-2.57h0a14.75 14.75 0 01-5.2-.88c-2.21-.85-9.21-4.46-6.34-15.56.93-3.59 3.42-5.9 6.67-6.2 5.75-.46 11.85 5.77 13.42 9.14.15.33.28.67.41 1a9.58 9.58 0 002.58-3c2.44-4.77 3-10.31 1.62-16.72-7.38-3.17-14-7.77-18.18-12.43-3.47-3.87-8.82-13.9-3.23-20.15a7.51 7.51 0 016.46-2.46c7 .69 13.92 10 14.91 11.68a82.29 82.29 0 017.65 16.49 32.3 32.3 0 0013.3 1.82 9.22 9.22 0 005.2-2.76c-3.28-3.36-6.47-8.61-6.08-13.18a8.23 8.23 0 016.42-7.33c6.49-1.77 10 .73 11.45 2.37 3 3.28 3.4 8.59 1.16 14.59 7.66 1.44 15.52-1.26 21.85-4a4.57 4.57 0 013.62 8.39c-7.79 3.37-19 7.19-30.29 3.82-3.18 3.74-7.42 6.65-12.33 7.19a37.55 37.55 0 01-12.17-.85 31.54 31.54 0 01-3.23 17.7c-2 3.87-5.8 7.08-10.12 9.09-.24 2.08-.61 4.25-1 6.45l-.24 1.32a37.56 37.56 0 01-2.05 6.67 23.76 23.76 0 00-1.7 5.85A4.56 4.56 0 011252.35 864.2zM1249.41 829c-.45 2.89.61 3.3 1 3.44a6.16 6.16 0 002.4.32 3.52 3.52 0 00-.2-.55A11.87 11.87 0 001249.41 829zm1.37-44.82a15.09 15.09 0 003.36 7 35.61 35.61 0 006.61 5.59q-1.39-2.81-3.15-5.79A26.54 26.54 0 001250.78 784.15zm43.94 5.88a12.34 12.34 0 001.81 3.39 6.08 6.08 0 00.11-3.6s-.11 0-.34 0A6.91 6.91 0 001294.72 790zM1503.85 876h-.25a4.56 4.56 0 01-4.31-4.81 24 24 0 00-1-6 37.87 37.87 0 01-1.3-6.87l-.09-1.37c-.15-2.22-.28-4.4-.28-6.49-4.08-2.47-7.52-6.09-9.06-10.15a31.6 31.6 0 01-1.25-17.94 37.63 37.63 0 01-12.18-.51c-4.82-1.08-8.72-4.44-11.45-8.51-11.6 2.1-22.33-3-29.69-7.16a4.57 4.57 0 114.53-7.93c6 3.41 13.52 7 21.27 6.38-1.56-6.2-.55-11.43 2.77-14.36 1.66-1.47 5.4-3.56 11.65-1.08a8.24 8.24 0 015.56 8c-.12 4.58-3.87 9.45-7.51 12.43a9.21 9.21 0 004.87 3.32 32.22 32.22 0 0013.42-.34 82.22 82.22 0 019.43-15.54c1.17-1.56 9.23-9.92 16.11-10a7.48 7.48 0 016.15 3.16c4.86 6.83-1.57 16.2-5.44 19.67-4.66 4.17-11.76 8-19.45 10.34-2.07 6.21-2.15 11.77-.25 16.78a9.83 9.83 0 002.24 3.29c.16-.33.33-.65.52-1 1.94-3.18 8.72-8.74 14.35-7.59 3.2.65 5.41 3.23 5.94 6.89 1.62 11.36-5.74 14.17-8 14.76a14.83 14.83 0 01-5.26.31c0 1 .11 1.88.16 2.56l.09 1.44a30.07 30.07 0 001 5.17 29.66 29.66 0 011.31 8.76A4.57 4.57 0 011503.85 876zm2.52-31.37a6.07 6.07 0 002.42 0c.4-.1 1.54-.4 1.39-3.32a11.66 11.66 0 00-3.56 2.86A4.66 4.66 0 001506.37 844.66zm7.39-48a26.44 26.44 0 00-7.52 6q-2.07 2.76-3.78 5.4a35.55 35.55 0 007.19-4.82A15.2 15.2 0 001513.76 796.61zm-46.09.6a1 1 0 00-.23 0 7.06 7.06 0 00-.17 3.53 12.44 12.44 0 002.16-3.16A5.59 5.59 0 001467.67 797.21z"></path></g></svg>